<svg width="24" height="24" viewBox="0 0 24 24" fill="none" xmlns="http://www.w3.org/2000/svg">
<path d="M12 9H12.01M11 12H12V16H13M10.3635 3.59095L2.25747 17.1249C2.09037 17.4143 2.00194 17.7424 2.00098 18.0766C2.00003 18.4108 2.08658 18.7393 2.25202 19.0297C2.41746 19.32 2.65604 19.562 2.94401 19.7315C3.23199 19.901 3.55933 19.9922 3.89347 19.9959H20.1075C20.4415 19.9921 20.7686 19.9009 21.0565 19.7314C21.3443 19.562 21.5828 19.3201 21.7482 19.0299C21.9136 18.7397 22.0002 18.4113 21.9994 18.0773C21.9986 17.7433 21.9103 17.4153 21.7435 17.1259L13.6375 3.58994C13.4669 3.30845 13.2267 3.07569 12.9399 2.91414C12.6532 2.7526 12.3296 2.66772 12.0005 2.66772C11.6713 2.66772 11.3478 2.7526 11.061 2.91414C10.7743 3.07569 10.534 3.30845 10.3635 3.58994V3.59095Z" stroke="#384150" stroke-width="1.5" stroke-linecap="round" stroke-linejoin="round"/>
</svg>
