<svg width="24" height="24" viewBox="0 0 24 24" fill="none" xmlns="http://www.w3.org/2000/svg">
<path d="M16.9998 3.34006C18.5081 4.21091 19.7628 5.46056 20.6396 6.96532C21.5165 8.47008 21.9851 10.1778 21.9992 11.9193C22.0133 13.6609 21.5723 15.3759 20.7198 16.8946C19.8674 18.4133 18.6331 19.6831 17.1391 20.5782C15.6451 21.4733 13.9432 21.9627 12.202 21.9979C10.4607 22.0332 8.74048 21.613 7.2115 20.7791C5.68252 19.9452 4.39785 18.7264 3.48465 17.2434C2.57146 15.7604 2.06141 14.0647 2.005 12.324L2 12L2.005 11.676C2.061 9.94898 2.56354 8.26597 3.46362 6.79102C4.36371 5.31607 5.63062 4.09951 7.14084 3.25994C8.65106 2.42038 10.3531 1.98647 12.0809 2.00051C13.8087 2.01455 15.5035 2.47607 16.9998 3.34006ZM15.7069 9.293C15.5347 9.12082 15.3056 9.01739 15.0625 9.00211C14.8195 8.98683 14.5793 9.06075 14.3869 9.21L14.2929 9.293L10.9999 12.585L9.70692 11.293L9.61292 11.21C9.42051 11.0608 9.18029 10.987 8.93733 11.0023C8.69437 11.0177 8.46534 11.1211 8.2932 11.2932C8.12105 11.4654 8.01762 11.6944 8.00229 11.9374C7.98696 12.1803 8.06079 12.4205 8.20993 12.613L8.29293 12.707L10.2929 14.7069L10.3869 14.7899C10.5623 14.926 10.7779 14.9999 10.9999 14.9999C11.2219 14.9999 11.4375 14.926 11.6129 14.7899L11.7069 14.7069L15.7069 10.707L15.7899 10.613C15.9391 10.4206 16.013 10.1803 15.9977 9.93731C15.9825 9.69429 15.879 9.46519 15.7069 9.293Z" fill="#F97316"/>
</svg>
