<svg width="387" height="64" viewBox="0 0 387 64" fill="none" xmlns="http://www.w3.org/2000/svg">
<path fill-rule="evenodd" clip-rule="evenodd" d="M48.9653 16.5714V3.78868L30.7698 24.0123L12.4306 3.44067V16.3602L4.23186 7.30698V59.7891H17.6088V16.7887L30.7698 31.6147L43.7873 16.9316V22.3601L30.7698 36.5595L19.7663 24.5031V32.0745L30.7698 44.0731L52.1298 20.3602V54.6461H48.9653V27.3602L44.0122 32.646V59.7891H57.308V7.21726L48.9653 16.5714ZM12.4306 54.6506H8.97851V20.2173L12.4306 23.9316V54.6506Z" fill="#F97316"/>
<path d="M364.48 50.528C361.6 50.528 359.216 50.1119 357.328 49.2799C355.44 48.4479 354 47.312 353.008 45.872C352.048 44.4 351.472 42.736 351.28 40.88H357.04C357.296 42.192 357.952 43.28 359.008 44.144C360.064 45.008 361.888 45.4399 364.48 45.4399C367.168 45.4399 369.072 45.008 370.192 44.144C371.344 43.248 371.92 42.16 371.92 40.88C371.92 39.824 371.6 38.9599 370.96 38.2879C370.32 37.6159 369.328 37.0399 367.984 36.5599C366.672 36.0479 364.992 35.584 362.944 35.1679C360.64 34.6559 358.688 34.0159 357.088 33.2479C355.488 32.4479 354.272 31.3919 353.44 30.0799C352.64 28.7679 352.24 27.0879 352.24 25.0399C352.24 23.3439 352.704 21.8079 353.632 20.4319C354.56 19.0559 355.92 17.9519 357.712 17.1199C359.536 16.2879 361.792 15.8719 364.48 15.8719C367.104 15.8719 369.28 16.2719 371.008 17.0719C372.768 17.8399 374.112 18.9119 375.04 20.2879C376 21.6639 376.56 23.2479 376.72 25.0399H370.96C370.704 23.8239 370.048 22.8479 368.992 22.1119C367.968 21.3439 366.464 20.9599 364.48 20.9599C362.176 20.9599 360.512 21.3599 359.488 22.1599C358.496 22.9599 358 23.9199 358 25.0399C358 26.5759 358.64 27.7279 359.92 28.4959C361.2 29.2639 363.168 29.9199 365.824 30.464C367.808 30.8799 369.536 31.3759 371.008 31.952C372.48 32.4959 373.712 33.1679 374.704 33.9679C375.696 34.736 376.432 35.6959 376.912 36.8479C377.424 37.968 377.68 39.312 377.68 40.88C377.68 42.736 377.184 44.4 376.192 45.872C375.232 47.312 373.776 48.4479 371.824 49.2799C369.872 50.1119 367.424 50.528 364.48 50.528Z" fill="white"/>
<path d="M320.293 50V16.3999H326.053V32.4319L340.261 16.3999H347.173L334.597 30.1279L348.133 50H341.125L330.757 34.1119L326.053 39.1999V50H320.293Z" fill="white"/>
<path d="M287.434 50V16.3999H300.154C302.97 16.3999 305.306 16.8479 307.162 17.7439C309.05 18.6399 310.474 19.8719 311.434 21.4399C312.394 23.0079 312.874 24.8159 312.874 26.8639C312.874 29.1679 312.25 31.1679 311.002 32.8639C309.754 34.528 307.882 35.728 305.386 36.464L313.834 50H307.498L300.058 37.1359H293.194V50H287.434ZM293.194 32.3359H299.194C302.138 32.3359 304.186 31.8559 305.338 30.8959C306.522 29.9359 307.114 28.5919 307.114 26.8639C307.114 25.1359 306.522 23.7919 305.338 22.8319C304.186 21.8719 302.138 21.3919 299.194 21.3919H293.194V32.3359Z" fill="white"/>
<path d="M265.114 50.528C263.066 50.528 261.114 50.208 259.258 49.568C257.434 48.928 255.802 47.936 254.362 46.5919C252.922 45.216 251.786 43.456 250.954 41.312C250.154 39.136 249.754 36.5119 249.754 33.4399V32.4799C249.754 29.5359 250.154 27.0239 250.954 24.9439C251.786 22.832 252.922 21.1039 254.362 19.7599C255.802 18.4159 257.434 17.4399 259.258 16.8319C261.114 16.1919 263.066 15.8719 265.114 15.8719C267.162 15.8719 269.098 16.1919 270.922 16.8319C272.778 17.4399 274.426 18.4159 275.866 19.7599C277.306 21.1039 278.426 22.832 279.226 24.9439C280.058 27.0239 280.474 29.5359 280.474 32.4799V33.4399C280.474 36.5119 280.058 39.136 279.226 41.312C278.426 43.456 277.306 45.216 275.866 46.5919C274.426 47.936 272.778 48.928 270.922 49.568C269.098 50.208 267.162 50.528 265.114 50.528ZM265.114 45.4399C266.714 45.4399 268.218 45.0559 269.626 44.2879C271.034 43.5199 272.186 42.2719 273.082 40.5439C273.978 38.7839 274.426 36.416 274.426 33.4399V32.4799C274.426 29.6639 273.978 27.4239 273.082 25.7599C272.186 24.0639 271.034 22.8479 269.626 22.1119C268.218 21.3439 266.714 20.9599 265.114 20.9599C263.514 20.9599 261.994 21.3439 260.554 22.1119C259.146 22.8479 257.994 24.0639 257.098 25.7599C256.234 27.4239 255.802 29.6639 255.802 32.4799V33.4399C255.802 36.416 256.234 38.7839 257.098 40.5439C257.994 42.2719 259.146 43.5199 260.554 44.2879C261.994 45.0559 263.514 45.4399 265.114 45.4399Z" fill="white"/>
<path d="M210.882 50L202.002 16.3999H207.954L214.338 41.36L221.682 16.3999H226.482L234.258 41.36L240.594 16.3999H246.162L237.282 50H231.522L223.89 25.0399L216.642 50H210.882Z" fill="white"/>
<path d="M151.356 50V16.3999H157.308L168.012 36.32L178.716 16.3999H184.476V50H178.716V26.4799L169.836 43.04H165.996L157.116 26.4799V50H151.356Z" fill="white"/>
<path d="M128.097 50.528C125.825 50.528 123.841 50.1119 122.145 49.2799C120.449 48.4479 119.137 47.312 118.209 45.872C117.281 44.4 116.817 42.736 116.817 40.88C116.817 39.568 116.993 38.368 117.345 37.2799C117.729 36.16 118.353 35.0879 119.217 34.0639C120.113 33.0079 121.297 31.9359 122.769 30.8479C121.841 29.7279 121.137 28.7519 120.657 27.9199C120.177 27.0559 119.857 26.2559 119.697 25.5199C119.537 24.7519 119.457 23.9519 119.457 23.1199C119.457 21.7439 119.793 20.5119 120.465 19.4239C121.137 18.3359 122.081 17.4719 123.297 16.8319C124.513 16.1919 125.953 15.8719 127.617 15.8719C129.281 15.8719 130.721 16.1919 131.937 16.8319C133.153 17.4719 134.097 18.3359 134.769 19.4239C135.441 20.5119 135.777 21.7439 135.777 23.1199C135.777 24.0159 135.601 24.8799 135.249 25.7119C134.897 26.5439 134.305 27.4239 133.473 28.3519C132.641 29.2799 131.505 30.3199 130.065 31.4719L137.121 39.3919C137.441 38.5599 137.681 37.712 137.841 36.8479C138.001 35.9839 138.081 35.0079 138.081 33.9199H143.457C143.457 35.9039 143.233 37.6799 142.785 39.2479C142.337 40.8159 141.697 42.272 140.865 43.616L146.577 50H140.145L137.649 47.264C136.337 48.32 134.865 49.136 133.233 49.712C131.633 50.256 129.921 50.528 128.097 50.528ZM128.097 45.9199C129.313 45.9199 130.433 45.728 131.457 45.344C132.513 44.96 133.473 44.384 134.337 43.616L126.081 34.5439C124.993 35.4079 124.161 36.1759 123.585 36.8479C123.041 37.4879 122.673 38.1279 122.481 38.7679C122.289 39.3759 122.193 40.08 122.193 40.88C122.193 42.32 122.705 43.5199 123.729 44.4799C124.785 45.4399 126.241 45.9199 128.097 45.9199ZM124.737 23.1199C124.737 23.8879 124.865 24.5759 125.121 25.1839C125.377 25.7919 125.985 26.6719 126.945 27.8239C128.065 26.9919 128.865 26.3039 129.345 25.7599C129.857 25.2159 130.177 24.7359 130.305 24.3199C130.433 23.9039 130.497 23.5039 130.497 23.1199C130.497 22.3839 130.225 21.7599 129.681 21.2479C129.169 20.7359 128.481 20.4799 127.617 20.4799C126.753 20.4799 126.049 20.7359 125.505 21.2479C124.993 21.7599 124.737 22.3839 124.737 23.1199Z" fill="white"/>
<path d="M76.731 50V16.3999H82.683L93.387 36.32L104.091 16.3999H109.851V50H104.091V26.4799L95.211 43.04H91.371L82.491 26.4799V50H76.731Z" fill="white"/>
</svg>
