<svg width="229" height="32" viewBox="0 0 229 32" fill="none" xmlns="http://www.w3.org/2000/svg">
<path fill-rule="evenodd" clip-rule="evenodd" d="M24.9924 8.28572V1.89434L15.8947 12.0061L6.72507 1.72033V8.18008L2.6257 3.65349V29.8945H9.31414V8.39437L15.8947 15.8074L22.4034 8.46579V11.1801L15.8947 18.2798L10.3929 12.2515V16.0373L15.8947 22.0365L26.5747 10.1801V27.323H24.9924V13.6801L22.5159 16.323V29.8945H29.1638V3.60863L24.9924 8.28572ZM6.72507 27.3253H4.99902V10.1087L6.72507 11.9658V27.3253Z" fill="#F97316"/>
<path d="M39.7972 25V8.2H42.7732L48.1252 18.16L53.4772 8.2H56.3572V25H53.4772V13.24L49.0372 21.52H47.1172L42.6772 13.24V25H39.7972ZM65.48 25.264C64.344 25.264 63.352 25.056 62.504 24.64C61.656 24.224 61 23.656 60.536 22.936C60.072 22.2 59.84 21.368 59.84 20.44C59.84 19.784 59.928 19.184 60.104 18.64C60.296 18.08 60.608 17.544 61.04 17.032C61.488 16.504 62.08 15.968 62.816 15.424C62.352 14.864 62 14.376 61.76 13.96C61.52 13.528 61.36 13.128 61.28 12.76C61.2 12.376 61.16 11.976 61.16 11.56C61.16 10.872 61.328 10.256 61.664 9.712C62 9.168 62.472 8.736 63.08 8.416C63.688 8.096 64.408 7.936 65.24 7.936C66.072 7.936 66.792 8.096 67.4 8.416C68.008 8.736 68.48 9.168 68.816 9.712C69.152 10.256 69.32 10.872 69.32 11.56C69.32 12.008 69.232 12.44 69.056 12.856C68.88 13.272 68.584 13.712 68.168 14.176C67.752 14.64 67.184 15.16 66.464 15.736L69.992 19.696C70.152 19.28 70.272 18.856 70.352 18.424C70.432 17.992 70.472 17.504 70.472 16.96H73.16C73.16 17.952 73.048 18.84 72.824 19.624C72.6 20.408 72.28 21.136 71.864 21.808L74.72 25H71.504L70.256 23.632C69.6 24.16 68.864 24.568 68.048 24.856C67.248 25.128 66.392 25.264 65.48 25.264ZM65.48 22.96C66.088 22.96 66.648 22.864 67.16 22.672C67.688 22.48 68.168 22.192 68.6 21.808L64.472 17.272C63.928 17.704 63.512 18.088 63.224 18.424C62.952 18.744 62.768 19.064 62.672 19.384C62.576 19.688 62.528 20.04 62.528 20.44C62.528 21.16 62.784 21.76 63.296 22.24C63.824 22.72 64.552 22.96 65.48 22.96ZM63.8 11.56C63.8 11.944 63.864 12.288 63.992 12.592C64.12 12.896 64.424 13.336 64.904 13.912C65.464 13.496 65.864 13.152 66.104 12.88C66.36 12.608 66.52 12.368 66.584 12.16C66.648 11.952 66.68 11.752 66.68 11.56C66.68 11.192 66.544 10.88 66.272 10.624C66.016 10.368 65.672 10.24 65.24 10.24C64.808 10.24 64.456 10.368 64.184 10.624C63.928 10.88 63.8 11.192 63.8 11.56ZM77.1097 25V8.2H80.0857L85.4377 18.16L90.7897 8.2H93.6697V25H90.7897V13.24L86.3497 21.52H84.4297L79.9897 13.24V25H77.1097ZM103.993 25V8.2H106.873V22.504H115.033V25H103.993ZM124.051 25.264C123.027 25.264 122.051 25.104 121.123 24.784C120.211 24.464 119.395 23.968 118.675 23.296C117.955 22.608 117.387 21.728 116.971 20.656C116.571 19.568 116.371 18.256 116.371 16.72V16.24C116.371 14.768 116.571 13.512 116.971 12.472C117.387 11.416 117.955 10.552 118.675 9.88C119.395 9.208 120.211 8.72 121.123 8.416C122.051 8.096 123.027 7.936 124.051 7.936C125.075 7.936 126.043 8.096 126.955 8.416C127.883 8.72 128.707 9.208 129.427 9.88C130.147 10.552 130.707 11.416 131.107 12.472C131.523 13.512 131.731 14.768 131.731 16.24V16.72C131.731 18.256 131.523 19.568 131.107 20.656C130.707 21.728 130.147 22.608 129.427 23.296C128.707 23.968 127.883 24.464 126.955 24.784C126.043 25.104 125.075 25.264 124.051 25.264ZM124.051 22.72C124.851 22.72 125.603 22.528 126.307 22.144C127.011 21.76 127.587 21.136 128.035 20.272C128.483 19.392 128.707 18.208 128.707 16.72V16.24C128.707 14.832 128.483 13.712 128.035 12.88C127.587 12.032 127.011 11.424 126.307 11.056C125.603 10.672 124.851 10.48 124.051 10.48C123.251 10.48 122.491 10.672 121.771 11.056C121.067 11.424 120.491 12.032 120.043 12.88C119.611 13.712 119.395 14.832 119.395 16.24V16.72C119.395 18.208 119.611 19.392 120.043 20.272C120.491 21.136 121.067 21.76 121.771 22.144C122.491 22.528 123.251 22.72 124.051 22.72ZM141.931 25.264C140.395 25.264 139.059 24.944 137.923 24.304C136.787 23.664 135.907 22.712 135.283 21.448C134.675 20.168 134.371 18.592 134.371 16.72V16.24C134.371 14.912 134.547 13.736 134.899 12.712C135.267 11.688 135.779 10.824 136.435 10.12C137.107 9.4 137.907 8.856 138.835 8.488C139.763 8.12 140.795 7.936 141.931 7.936C142.795 7.936 143.595 8.056 144.331 8.296C145.083 8.52 145.747 8.856 146.323 9.304C146.899 9.736 147.379 10.288 147.763 10.96C148.163 11.616 148.459 12.376 148.651 13.24H145.531C145.307 12.536 145.003 11.984 144.619 11.584C144.235 11.184 143.811 10.904 143.347 10.744C142.883 10.568 142.411 10.48 141.931 10.48C141.035 10.48 140.243 10.688 139.555 11.104C138.867 11.52 138.331 12.152 137.947 13C137.579 13.848 137.395 14.928 137.395 16.24V16.72C137.395 17.744 137.507 18.632 137.731 19.384C137.955 20.136 138.267 20.76 138.667 21.256C139.083 21.752 139.563 22.12 140.107 22.36C140.667 22.6 141.275 22.72 141.931 22.72C142.763 22.72 143.483 22.576 144.091 22.288C144.699 22 145.187 21.552 145.555 20.944C145.923 20.336 146.147 19.568 146.227 18.64H142.411V16.24H149.011V17.2C149.011 18.544 148.843 19.72 148.507 20.728C148.187 21.736 147.723 22.576 147.115 23.248C146.507 23.92 145.763 24.424 144.883 24.76C144.019 25.096 143.035 25.264 141.931 25.264ZM152.608 25V8.2H155.488V25H152.608ZM165.695 25.264C164.255 25.264 163.063 25.056 162.119 24.64C161.175 24.224 160.455 23.656 159.959 22.936C159.479 22.2 159.191 21.368 159.095 20.44H161.975C162.103 21.096 162.431 21.64 162.959 22.072C163.487 22.504 164.399 22.72 165.695 22.72C167.039 22.72 167.991 22.504 168.551 22.072C169.127 21.624 169.415 21.08 169.415 20.44C169.415 19.912 169.255 19.48 168.935 19.144C168.615 18.808 168.119 18.52 167.447 18.28C166.791 18.024 165.951 17.792 164.927 17.584C163.775 17.328 162.799 17.008 161.999 16.624C161.199 16.224 160.591 15.696 160.175 15.04C159.775 14.384 159.575 13.544 159.575 12.52C159.575 11.672 159.807 10.904 160.271 10.216C160.735 9.528 161.415 8.976 162.311 8.56C163.223 8.144 164.351 7.936 165.695 7.936C167.007 7.936 168.095 8.136 168.959 8.536C169.839 8.92 170.511 9.456 170.975 10.144C171.455 10.832 171.735 11.624 171.815 12.52H168.935C168.807 11.912 168.479 11.424 167.951 11.056C167.439 10.672 166.687 10.48 165.695 10.48C164.543 10.48 163.711 10.68 163.199 11.08C162.703 11.48 162.455 11.96 162.455 12.52C162.455 13.288 162.775 13.864 163.415 14.248C164.055 14.632 165.039 14.96 166.367 15.232C167.359 15.44 168.223 15.688 168.959 15.976C169.695 16.248 170.311 16.584 170.807 16.984C171.303 17.368 171.671 17.848 171.911 18.424C172.167 18.984 172.295 19.656 172.295 20.44C172.295 21.368 172.047 22.2 171.551 22.936C171.071 23.656 170.343 24.224 169.367 24.64C168.391 25.056 167.167 25.264 165.695 25.264ZM179.39 25V10.696H173.75V8.2H187.91V10.696H182.27V25H179.39ZM190.787 25V8.2H193.667V25H190.787ZM204.715 25.264C203.339 25.264 202.099 24.976 200.995 24.4C199.891 23.808 199.011 22.888 198.355 21.64C197.715 20.376 197.395 18.736 197.395 16.72V16.24C197.395 14.784 197.587 13.536 197.971 12.496C198.355 11.44 198.875 10.576 199.531 9.904C200.203 9.232 200.979 8.736 201.859 8.416C202.755 8.096 203.707 7.936 204.715 7.936C205.643 7.936 206.507 8.056 207.307 8.296C208.107 8.52 208.811 8.864 209.419 9.328C210.027 9.792 210.515 10.368 210.883 11.056C211.251 11.744 211.475 12.552 211.555 13.48H208.531C208.323 12.44 207.875 11.68 207.187 11.2C206.515 10.72 205.691 10.48 204.715 10.48C204.011 10.48 203.331 10.664 202.675 11.032C202.019 11.384 201.475 11.976 201.043 12.808C200.627 13.64 200.419 14.784 200.419 16.24V16.72C200.419 17.872 200.547 18.84 200.803 19.624C201.059 20.392 201.395 21 201.811 21.448C202.243 21.896 202.707 22.224 203.203 22.432C203.715 22.624 204.219 22.72 204.715 22.72C205.867 22.72 206.755 22.456 207.379 21.928C208.019 21.384 208.403 20.648 208.531 19.72H211.555C211.459 20.712 211.219 21.56 210.835 22.264C210.467 22.968 209.971 23.544 209.347 23.992C208.739 24.424 208.043 24.744 207.259 24.952C206.475 25.16 205.627 25.264 204.715 25.264ZM220.445 25.264C219.005 25.264 217.813 25.056 216.869 24.64C215.925 24.224 215.205 23.656 214.709 22.936C214.229 22.2 213.941 21.368 213.845 20.44H216.725C216.853 21.096 217.181 21.64 217.709 22.072C218.237 22.504 219.149 22.72 220.445 22.72C221.789 22.72 222.741 22.504 223.301 22.072C223.877 21.624 224.165 21.08 224.165 20.44C224.165 19.912 224.005 19.48 223.685 19.144C223.365 18.808 222.869 18.52 222.197 18.28C221.541 18.024 220.701 17.792 219.677 17.584C218.525 17.328 217.549 17.008 216.749 16.624C215.949 16.224 215.341 15.696 214.925 15.04C214.525 14.384 214.325 13.544 214.325 12.52C214.325 11.672 214.557 10.904 215.021 10.216C215.485 9.528 216.165 8.976 217.061 8.56C217.973 8.144 219.101 7.936 220.445 7.936C221.757 7.936 222.845 8.136 223.709 8.536C224.589 8.92 225.261 9.456 225.725 10.144C226.205 10.832 226.485 11.624 226.565 12.52H223.685C223.557 11.912 223.229 11.424 222.701 11.056C222.189 10.672 221.437 10.48 220.445 10.48C219.293 10.48 218.461 10.68 217.949 11.08C217.453 11.48 217.205 11.96 217.205 12.52C217.205 13.288 217.525 13.864 218.165 14.248C218.805 14.632 219.789 14.96 221.117 15.232C222.109 15.44 222.973 15.688 223.709 15.976C224.445 16.248 225.061 16.584 225.557 16.984C226.053 17.368 226.421 17.848 226.661 18.424C226.917 18.984 227.045 19.656 227.045 20.44C227.045 21.368 226.797 22.2 226.301 22.936C225.821 23.656 225.093 24.224 224.117 24.64C223.141 25.056 221.917 25.264 220.445 25.264Z" fill="#384150"/>
</svg>
