<svg width="455" height="64" viewBox="0 0 455 64" fill="none" xmlns="http://www.w3.org/2000/svg">
<path fill-rule="evenodd" clip-rule="evenodd" d="M49.4653 16.5714V3.78868L31.2698 24.0123L12.9306 3.44067V16.3602L4.73186 7.30698V59.7891H18.1088V16.7887L31.2698 31.6147L44.2873 16.9316V22.3601L31.2698 36.5595L20.2663 24.5031V32.0745L31.2698 44.0731L52.6298 20.3602V54.6461H49.4653V27.3602L44.5122 32.646V59.7891H57.808V7.21726L49.4653 16.5714ZM12.9306 54.6506H9.47851V20.2173L12.9306 23.9316V54.6506Z" fill="#F97316"/>
<path d="M438.371 50.528C435.491 50.528 433.107 50.1119 431.219 49.2799C429.331 48.4479 427.891 47.312 426.899 45.872C425.939 44.4 425.363 42.736 425.171 40.88H430.931C431.187 42.192 431.843 43.28 432.899 44.144C433.955 45.008 435.779 45.4399 438.371 45.4399C441.059 45.4399 442.963 45.008 444.083 44.144C445.235 43.248 445.811 42.16 445.811 40.88C445.811 39.824 445.491 38.9599 444.851 38.2879C444.211 37.6159 443.219 37.0399 441.875 36.5599C440.563 36.0479 438.883 35.584 436.835 35.1679C434.531 34.6559 432.579 34.0159 430.979 33.2479C429.379 32.4479 428.163 31.3919 427.331 30.0799C426.531 28.7679 426.131 27.0879 426.131 25.0399C426.131 23.3439 426.595 21.8079 427.523 20.4319C428.451 19.0559 429.811 17.9519 431.603 17.1199C433.427 16.2879 435.683 15.8719 438.371 15.8719C440.995 15.8719 443.171 16.2719 444.899 17.0719C446.659 17.8399 448.003 18.9119 448.931 20.2879C449.891 21.6639 450.451 23.2479 450.611 25.0399H444.851C444.595 23.8239 443.939 22.8479 442.883 22.1119C441.859 21.3439 440.355 20.9599 438.371 20.9599C436.067 20.9599 434.403 21.3599 433.379 22.1599C432.387 22.9599 431.891 23.9199 431.891 25.0399C431.891 26.5759 432.531 27.7279 433.811 28.4959C435.091 29.2639 437.059 29.9199 439.715 30.464C441.699 30.8799 443.427 31.3759 444.899 31.952C446.371 32.4959 447.603 33.1679 448.595 33.9679C449.587 34.736 450.323 35.6959 450.803 36.8479C451.315 37.968 451.571 39.312 451.571 40.88C451.571 42.736 451.075 44.4 450.083 45.872C449.123 47.312 447.667 48.4479 445.715 49.2799C443.763 50.1119 441.315 50.528 438.371 50.528Z" fill="white"/>
<path d="M406.91 50.528C404.158 50.528 401.678 49.952 399.47 48.7999C397.262 47.6159 395.502 45.7759 394.19 43.2799C392.91 40.7519 392.27 37.472 392.27 33.4399V32.4799C392.27 29.5679 392.654 27.0719 393.422 24.9919C394.19 22.8799 395.23 21.1519 396.542 19.8079C397.886 18.4639 399.438 17.4719 401.198 16.8319C402.99 16.1919 404.894 15.8719 406.91 15.8719C408.766 15.8719 410.494 16.1119 412.094 16.5919C413.694 17.0399 415.102 17.7279 416.318 18.6559C417.534 19.5839 418.51 20.7359 419.246 22.1119C419.982 23.4879 420.43 25.1039 420.59 26.9599H414.542C414.126 24.8799 413.23 23.3599 411.854 22.3999C410.51 21.4399 408.862 20.9599 406.91 20.9599C405.502 20.9599 404.142 21.3279 402.83 22.0639C401.518 22.7679 400.43 23.9519 399.566 25.6159C398.734 27.2799 398.318 29.5679 398.318 32.4799V33.4399C398.318 35.7439 398.574 37.6799 399.086 39.2479C399.598 40.7839 400.27 42 401.102 42.896C401.966 43.792 402.894 44.4479 403.886 44.8639C404.91 45.2479 405.918 45.4399 406.91 45.4399C409.214 45.4399 410.99 44.9119 412.238 43.8559C413.518 42.768 414.286 41.2959 414.542 39.4399H420.59C420.398 41.424 419.918 43.1199 419.15 44.528C418.414 45.936 417.422 47.088 416.174 47.984C414.958 48.8479 413.566 49.4879 411.998 49.9039C410.43 50.32 408.734 50.528 406.91 50.528Z" fill="white"/>
<path d="M379.055 50V16.3999H384.815V50H379.055Z" fill="white"/>
<path d="M356.261 50V21.3919H344.981V16.3999H373.301V21.3919H362.021V50H356.261Z" fill="white"/>
<path d="M328.871 50.528C325.991 50.528 323.607 50.1119 321.719 49.2799C319.831 48.4479 318.391 47.312 317.399 45.872C316.439 44.4 315.863 42.736 315.671 40.88H321.431C321.687 42.192 322.343 43.28 323.399 44.144C324.455 45.008 326.279 45.4399 328.871 45.4399C331.559 45.4399 333.463 45.008 334.583 44.144C335.735 43.248 336.311 42.16 336.311 40.88C336.311 39.824 335.991 38.9599 335.351 38.2879C334.711 37.6159 333.719 37.0399 332.375 36.5599C331.063 36.0479 329.383 35.584 327.335 35.1679C325.031 34.6559 323.079 34.0159 321.479 33.2479C319.879 32.4479 318.663 31.3919 317.831 30.0799C317.031 28.7679 316.631 27.0879 316.631 25.0399C316.631 23.3439 317.095 21.8079 318.023 20.4319C318.951 19.0559 320.311 17.9519 322.103 17.1199C323.927 16.2879 326.183 15.8719 328.871 15.8719C331.495 15.8719 333.671 16.2719 335.399 17.0719C337.159 17.8399 338.503 18.9119 339.431 20.2879C340.391 21.6639 340.951 23.2479 341.111 25.0399H335.351C335.095 23.8239 334.439 22.8479 333.383 22.1119C332.359 21.3439 330.855 20.9599 328.871 20.9599C326.567 20.9599 324.903 21.3599 323.879 22.1599C322.887 22.9599 322.391 23.9199 322.391 25.0399C322.391 26.5759 323.031 27.7279 324.311 28.4959C325.591 29.2639 327.559 29.9199 330.215 30.464C332.199 30.8799 333.927 31.3759 335.399 31.952C336.871 32.4959 338.103 33.1679 339.095 33.9679C340.087 34.736 340.823 35.6959 341.303 36.8479C341.815 37.968 342.071 39.312 342.071 40.88C342.071 42.736 341.575 44.4 340.583 45.872C339.623 47.312 338.167 48.4479 336.215 49.2799C334.263 50.1119 331.815 50.528 328.871 50.528Z" fill="white"/>
<path d="M302.696 50V16.3999H308.456V50H302.696Z" fill="white"/>
<path d="M281.343 50.528C278.271 50.528 275.599 49.888 273.327 48.608C271.055 47.328 269.295 45.424 268.047 42.896C266.831 40.3359 266.223 37.1839 266.223 33.4399V32.4799C266.223 29.8239 266.575 27.4719 267.279 25.4239C268.015 23.3759 269.039 21.6479 270.351 20.2399C271.695 18.7999 273.295 17.7119 275.151 16.9759C277.007 16.2399 279.071 15.8719 281.343 15.8719C283.071 15.8719 284.671 16.1119 286.143 16.5919C287.647 17.0399 288.975 17.7119 290.127 18.6079C291.279 19.4719 292.239 20.5759 293.007 21.9199C293.807 23.2319 294.399 24.7519 294.783 26.4799H288.543C288.095 25.0719 287.487 23.9679 286.719 23.1679C285.951 22.3679 285.103 21.8079 284.175 21.4879C283.247 21.1359 282.303 20.9599 281.343 20.9599C279.551 20.9599 277.967 21.3759 276.591 22.2079C275.215 23.0399 274.143 24.3039 273.375 25.9999C272.639 27.6959 272.271 29.8559 272.271 32.4799V33.4399C272.271 35.4879 272.495 37.2639 272.943 38.7679C273.391 40.2719 274.015 41.52 274.815 42.512C275.647 43.504 276.607 44.24 277.695 44.72C278.815 45.2 280.031 45.4399 281.343 45.4399C283.007 45.4399 284.447 45.152 285.663 44.576C286.879 44 287.855 43.104 288.591 41.888C289.327 40.672 289.775 39.1359 289.935 37.2799H282.303V32.4799H295.503V34.3999C295.503 37.0879 295.167 39.44 294.495 41.456C293.855 43.472 292.927 45.1519 291.711 46.4959C290.495 47.8399 289.007 48.8479 287.247 49.52C285.519 50.192 283.551 50.528 281.343 50.528Z" fill="white"/>
<path d="M245.583 50.528C243.535 50.528 241.583 50.208 239.727 49.568C237.903 48.928 236.271 47.936 234.831 46.5919C233.391 45.216 232.255 43.456 231.423 41.312C230.623 39.136 230.223 36.5119 230.223 33.4399V32.4799C230.223 29.5359 230.623 27.0239 231.423 24.9439C232.255 22.832 233.391 21.1039 234.831 19.7599C236.271 18.4159 237.903 17.4399 239.727 16.8319C241.583 16.1919 243.535 15.8719 245.583 15.8719C247.631 15.8719 249.567 16.1919 251.391 16.8319C253.247 17.4399 254.895 18.4159 256.335 19.7599C257.775 21.1039 258.895 22.832 259.695 24.9439C260.527 27.0239 260.943 29.5359 260.943 32.4799V33.4399C260.943 36.5119 260.527 39.136 259.695 41.312C258.895 43.456 257.775 45.216 256.335 46.5919C254.895 47.936 253.247 48.928 251.391 49.568C249.567 50.208 247.631 50.528 245.583 50.528ZM245.583 45.4399C247.183 45.4399 248.687 45.0559 250.095 44.2879C251.503 43.5199 252.655 42.2719 253.551 40.5439C254.447 38.7839 254.895 36.416 254.895 33.4399V32.4799C254.895 29.6639 254.447 27.4239 253.551 25.7599C252.655 24.0639 251.503 22.8479 250.095 22.1119C248.687 21.3439 247.183 20.9599 245.583 20.9599C243.983 20.9599 242.463 21.3439 241.023 22.1119C239.615 22.8479 238.463 24.0639 237.567 25.7599C236.703 27.4239 236.271 29.6639 236.271 32.4799V33.4399C236.271 36.416 236.703 38.7839 237.567 40.5439C238.463 42.2719 239.615 43.5199 241.023 44.2879C242.463 45.0559 243.983 45.4399 245.583 45.4399Z" fill="white"/>
<path d="M205.466 50V16.3999H211.226V45.0079H227.546V50H205.466Z" fill="white"/>
<path d="M151.7 50V16.3999H157.652L168.356 36.32L179.06 16.3999H184.82V50H179.06V26.4799L170.18 43.04H166.34L157.46 26.4799V50H151.7Z" fill="white"/>
<path d="M128.441 50.528C126.169 50.528 124.185 50.1119 122.489 49.2799C120.793 48.4479 119.481 47.312 118.553 45.872C117.625 44.4 117.161 42.736 117.161 40.88C117.161 39.568 117.337 38.368 117.689 37.2799C118.073 36.16 118.697 35.0879 119.561 34.0639C120.457 33.0079 121.641 31.9359 123.113 30.8479C122.185 29.7279 121.481 28.7519 121.001 27.9199C120.521 27.0559 120.201 26.2559 120.041 25.5199C119.881 24.7519 119.801 23.9519 119.801 23.1199C119.801 21.7439 120.137 20.5119 120.809 19.4239C121.481 18.3359 122.425 17.4719 123.641 16.8319C124.857 16.1919 126.297 15.8719 127.961 15.8719C129.625 15.8719 131.065 16.1919 132.281 16.8319C133.497 17.4719 134.441 18.3359 135.113 19.4239C135.785 20.5119 136.121 21.7439 136.121 23.1199C136.121 24.0159 135.945 24.8799 135.593 25.7119C135.241 26.5439 134.649 27.4239 133.817 28.3519C132.985 29.2799 131.849 30.3199 130.409 31.4719L137.465 39.3919C137.785 38.5599 138.025 37.712 138.185 36.8479C138.345 35.9839 138.425 35.0079 138.425 33.9199H143.801C143.801 35.9039 143.577 37.6799 143.129 39.2479C142.681 40.8159 142.041 42.272 141.209 43.616L146.921 50H140.489L137.993 47.264C136.681 48.32 135.209 49.136 133.577 49.712C131.977 50.256 130.265 50.528 128.441 50.528ZM128.441 45.9199C129.657 45.9199 130.777 45.728 131.801 45.344C132.857 44.96 133.817 44.384 134.681 43.616L126.425 34.5439C125.337 35.4079 124.505 36.1759 123.929 36.8479C123.385 37.4879 123.017 38.1279 122.825 38.7679C122.633 39.3759 122.537 40.08 122.537 40.88C122.537 42.32 123.049 43.5199 124.073 44.4799C125.129 45.4399 126.585 45.9199 128.441 45.9199ZM125.081 23.1199C125.081 23.8879 125.209 24.5759 125.465 25.1839C125.721 25.7919 126.329 26.6719 127.289 27.8239C128.409 26.9919 129.209 26.3039 129.689 25.7599C130.201 25.2159 130.521 24.7359 130.649 24.3199C130.777 23.9039 130.841 23.5039 130.841 23.1199C130.841 22.3839 130.569 21.7599 130.025 21.2479C129.513 20.7359 128.825 20.4799 127.961 20.4799C127.097 20.4799 126.393 20.7359 125.849 21.2479C125.337 21.7599 125.081 22.3839 125.081 23.1199Z" fill="white"/>
<path d="M77.0752 50V16.3999H83.0272L93.7312 36.32L104.435 16.3999H110.195V50H104.435V26.4799L95.5552 43.04H91.7152L82.8352 26.4799V50H77.0752Z" fill="white"/>
</svg>
