<svg width="194" height="32" viewBox="0 0 194 32" fill="none" xmlns="http://www.w3.org/2000/svg">
<path fill-rule="evenodd" clip-rule="evenodd" d="M24.4827 8.28572V1.89434L15.3849 12.0061L6.21531 1.72033V8.18008L2.11593 3.65349V29.8945H8.80438V8.39437L15.3849 15.8074L21.8937 8.46579V11.1801L15.3849 18.2798L9.88314 12.2515V16.0373L15.3849 22.0365L26.0649 10.1801V27.323H24.4827V13.6801L22.0061 16.323V29.8945H28.654V3.60863L24.4827 8.28572ZM6.21531 27.3253H4.48926V10.1087L6.21531 11.9658V27.3253Z" fill="#F97316"/>
<path d="M39.2874 25V8.2H42.2634L47.6154 18.16L52.9674 8.2H55.8474V25H52.9674V13.24L48.5274 21.52H46.6074L42.1674 13.24V25H39.2874ZM64.9703 25.264C63.8343 25.264 62.8423 25.056 61.9943 24.64C61.1463 24.224 60.4903 23.656 60.0263 22.936C59.5623 22.2 59.3303 21.368 59.3303 20.44C59.3303 19.784 59.4183 19.184 59.5943 18.64C59.7863 18.08 60.0983 17.544 60.5303 17.032C60.9783 16.504 61.5703 15.968 62.3063 15.424C61.8423 14.864 61.4903 14.376 61.2503 13.96C61.0103 13.528 60.8503 13.128 60.7703 12.76C60.6903 12.376 60.6503 11.976 60.6503 11.56C60.6503 10.872 60.8183 10.256 61.1543 9.712C61.4903 9.168 61.9623 8.736 62.5703 8.416C63.1783 8.096 63.8983 7.936 64.7303 7.936C65.5623 7.936 66.2823 8.096 66.8903 8.416C67.4983 8.736 67.9703 9.168 68.3063 9.712C68.6423 10.256 68.8103 10.872 68.8103 11.56C68.8103 12.008 68.7223 12.44 68.5463 12.856C68.3703 13.272 68.0743 13.712 67.6583 14.176C67.2423 14.64 66.6743 15.16 65.9543 15.736L69.4823 19.696C69.6423 19.28 69.7623 18.856 69.8423 18.424C69.9223 17.992 69.9623 17.504 69.9623 16.96H72.6503C72.6503 17.952 72.5383 18.84 72.3143 19.624C72.0903 20.408 71.7703 21.136 71.3543 21.808L74.2103 25H70.9943L69.7463 23.632C69.0903 24.16 68.3543 24.568 67.5383 24.856C66.7383 25.128 65.8823 25.264 64.9703 25.264ZM64.9703 22.96C65.5783 22.96 66.1383 22.864 66.6503 22.672C67.1783 22.48 67.6583 22.192 68.0903 21.808L63.9623 17.272C63.4183 17.704 63.0023 18.088 62.7143 18.424C62.4423 18.744 62.2583 19.064 62.1623 19.384C62.0663 19.688 62.0183 20.04 62.0183 20.44C62.0183 21.16 62.2743 21.76 62.7863 22.24C63.3143 22.72 64.0423 22.96 64.9703 22.96ZM63.2903 11.56C63.2903 11.944 63.3543 12.288 63.4823 12.592C63.6103 12.896 63.9143 13.336 64.3943 13.912C64.9543 13.496 65.3543 13.152 65.5943 12.88C65.8503 12.608 66.0103 12.368 66.0743 12.16C66.1383 11.952 66.1703 11.752 66.1703 11.56C66.1703 11.192 66.0343 10.88 65.7623 10.624C65.5063 10.368 65.1623 10.24 64.7303 10.24C64.2983 10.24 63.9463 10.368 63.6743 10.624C63.4183 10.88 63.2903 11.192 63.2903 11.56ZM76.5999 25V8.2H79.5759L84.9279 18.16L90.2799 8.2H93.1599V25H90.2799V13.24L85.8399 21.52H83.9199L79.4799 13.24V25H76.5999ZM106.363 25L101.923 8.2H104.899L108.091 20.68L111.763 8.2H114.163L118.051 20.68L121.219 8.2H124.003L119.563 25H116.683L112.867 12.52L109.243 25H106.363ZM133.479 25.264C132.455 25.264 131.479 25.104 130.551 24.784C129.639 24.464 128.823 23.968 128.103 23.296C127.383 22.608 126.815 21.728 126.399 20.656C125.999 19.568 125.799 18.256 125.799 16.72V16.24C125.799 14.768 125.999 13.512 126.399 12.472C126.815 11.416 127.383 10.552 128.103 9.88C128.823 9.208 129.639 8.72 130.551 8.416C131.479 8.096 132.455 7.936 133.479 7.936C134.503 7.936 135.471 8.096 136.383 8.416C137.311 8.72 138.135 9.208 138.855 9.88C139.575 10.552 140.135 11.416 140.535 12.472C140.951 13.512 141.159 14.768 141.159 16.24V16.72C141.159 18.256 140.951 19.568 140.535 20.656C140.135 21.728 139.575 22.608 138.855 23.296C138.135 23.968 137.311 24.464 136.383 24.784C135.471 25.104 134.503 25.264 133.479 25.264ZM133.479 22.72C134.279 22.72 135.031 22.528 135.735 22.144C136.439 21.76 137.015 21.136 137.463 20.272C137.911 19.392 138.135 18.208 138.135 16.72V16.24C138.135 14.832 137.911 13.712 137.463 12.88C137.015 12.032 136.439 11.424 135.735 11.056C135.031 10.672 134.279 10.48 133.479 10.48C132.679 10.48 131.919 10.672 131.199 11.056C130.495 11.424 129.919 12.032 129.471 12.88C129.039 13.712 128.823 14.832 128.823 16.24V16.72C128.823 18.208 129.039 19.392 129.471 20.272C129.919 21.136 130.495 21.76 131.199 22.144C131.919 22.528 132.679 22.72 133.479 22.72ZM144.639 25V8.2H150.999C152.407 8.2 153.575 8.424 154.503 8.872C155.447 9.32 156.159 9.936 156.639 10.72C157.119 11.504 157.359 12.408 157.359 13.432C157.359 14.584 157.047 15.584 156.423 16.432C155.799 17.264 154.863 17.864 153.615 18.232L157.839 25H154.671L150.951 18.568H147.519V25H144.639ZM147.519 16.168H150.519C151.991 16.168 153.015 15.928 153.591 15.448C154.183 14.968 154.479 14.296 154.479 13.432C154.479 12.568 154.183 11.896 153.591 11.416C153.015 10.936 151.991 10.696 150.519 10.696H147.519V16.168ZM161.069 25V8.2H163.949V16.216L171.053 8.2H174.509L168.221 15.064L174.989 25H171.485L166.301 17.056L163.949 19.6V25H161.069ZM183.162 25.264C181.722 25.264 180.53 25.056 179.586 24.64C178.642 24.224 177.922 23.656 177.426 22.936C176.946 22.2 176.658 21.368 176.562 20.44H179.442C179.57 21.096 179.898 21.64 180.426 22.072C180.954 22.504 181.866 22.72 183.162 22.72C184.506 22.72 185.458 22.504 186.018 22.072C186.594 21.624 186.882 21.08 186.882 20.44C186.882 19.912 186.722 19.48 186.402 19.144C186.082 18.808 185.586 18.52 184.914 18.28C184.258 18.024 183.418 17.792 182.394 17.584C181.242 17.328 180.266 17.008 179.466 16.624C178.666 16.224 178.058 15.696 177.642 15.04C177.242 14.384 177.042 13.544 177.042 12.52C177.042 11.672 177.274 10.904 177.738 10.216C178.202 9.528 178.882 8.976 179.778 8.56C180.69 8.144 181.818 7.936 183.162 7.936C184.474 7.936 185.562 8.136 186.426 8.536C187.306 8.92 187.978 9.456 188.442 10.144C188.922 10.832 189.202 11.624 189.282 12.52H186.402C186.274 11.912 185.946 11.424 185.418 11.056C184.906 10.672 184.154 10.48 183.162 10.48C182.01 10.48 181.178 10.68 180.666 11.08C180.17 11.48 179.922 11.96 179.922 12.52C179.922 13.288 180.242 13.864 180.882 14.248C181.522 14.632 182.506 14.96 183.834 15.232C184.826 15.44 185.69 15.688 186.426 15.976C187.162 16.248 187.778 16.584 188.274 16.984C188.77 17.368 189.138 17.848 189.378 18.424C189.634 18.984 189.762 19.656 189.762 20.44C189.762 21.368 189.514 22.2 189.018 22.936C188.538 23.656 187.81 24.224 186.834 24.64C185.858 25.056 184.634 25.264 183.162 25.264Z" fill="#384150"/>
</svg>
