<svg width="96" height="12" viewBox="0 0 96 12" fill="none" xmlns="http://www.w3.org/2000/svg">
<path d="M3.99871 11V2.656H0.708711V1.2H8.96871V2.656H5.67871V11H3.99871ZM12.1893 11.154C11.5079 11.154 10.8919 11.014 10.3413 10.734C9.79059 10.4447 9.35192 10.02 9.02526 9.46C8.70792 8.89067 8.54926 8.19067 8.54926 7.36V7.08C8.54926 6.296 8.70792 5.63333 9.02526 5.092C9.35192 4.54133 9.79059 4.126 10.3413 3.846C10.8919 3.566 11.5079 3.426 12.1893 3.426C12.8799 3.426 13.4959 3.566 14.0373 3.846C14.5879 4.126 15.0219 4.54133 15.3393 5.092C15.6659 5.63333 15.8293 6.296 15.8293 7.08V7.36C15.8293 8.19067 15.6659 8.89067 15.3393 9.46C15.0219 10.02 14.5879 10.4447 14.0373 10.734C13.4959 11.014 12.8799 11.154 12.1893 11.154ZM12.1893 9.81C12.5439 9.81 12.8799 9.726 13.1973 9.558C13.5146 9.39 13.7713 9.12867 13.9673 8.774C14.1633 8.41 14.2613 7.93867 14.2613 7.36V7.08C14.2613 6.548 14.1633 6.114 13.9673 5.778C13.7713 5.43267 13.5146 5.18067 13.1973 5.022C12.8799 4.854 12.5439 4.77 12.1893 4.77C11.8346 4.77 11.4986 4.854 11.1813 5.022C10.8639 5.18067 10.6073 5.43267 10.4113 5.778C10.2153 6.114 10.1173 6.548 10.1173 7.08V7.36C10.1173 7.93867 10.2153 8.41 10.4113 8.774C10.6073 9.12867 10.8639 9.39 11.1813 9.558C11.4986 9.726 11.8346 9.81 12.1893 9.81ZM17.3638 11V3.58H18.7918V4.84C18.9598 4.45733 19.2305 4.126 19.6038 3.846C19.9771 3.566 20.4065 3.426 20.8918 3.426C21.5078 3.426 21.9885 3.55667 22.3338 3.818C22.6791 4.07933 22.9171 4.42 23.0478 4.84C23.2625 4.42 23.5611 4.07933 23.9438 3.818C24.3358 3.55667 24.7885 3.426 25.3018 3.426C26.0765 3.426 26.6738 3.65467 27.0938 4.112C27.5138 4.56933 27.7238 5.27867 27.7238 6.24V11H26.1838V6.59C26.1838 5.92733 26.0578 5.46067 25.8058 5.19C25.5631 4.91 25.2318 4.77 24.8118 4.77C24.4758 4.77 24.1958 4.84933 23.9718 5.008C23.7571 5.15733 23.5938 5.372 23.4818 5.652C23.3698 5.92267 23.3138 6.23533 23.3138 6.59V11H21.7738V6.59C21.7738 5.92733 21.6478 5.46067 21.3958 5.19C21.1531 4.91 20.8218 4.77 20.4018 4.77C20.0658 4.77 19.7858 4.84933 19.5618 5.008C19.3471 5.15733 19.1838 5.372 19.0718 5.652C18.9598 5.92267 18.9038 6.23533 18.9038 6.59V11H17.3638ZM31.7838 11.154C31.2518 11.154 30.7945 11.056 30.4118 10.86C30.0385 10.6547 29.7538 10.3747 29.5578 10.02C29.3618 9.66533 29.2638 9.26867 29.2638 8.83C29.2638 8.09267 29.4831 7.54667 29.9218 7.192C30.3605 6.828 31.0045 6.646 31.8538 6.646H34.1638V6.24C34.1638 5.68 34.0378 5.29733 33.7858 5.092C33.5431 4.87733 33.1558 4.77 32.6238 4.77C32.1478 4.77 31.7978 4.84467 31.5738 4.994C31.3498 5.14333 31.2191 5.34867 31.1818 5.61H29.6838C29.7118 5.18067 29.8471 4.80267 30.0898 4.476C30.3325 4.14933 30.6731 3.89267 31.1118 3.706C31.5598 3.51933 32.0871 3.426 32.6938 3.426C33.3005 3.426 33.8278 3.51933 34.2758 3.706C34.7331 3.89267 35.0831 4.18667 35.3258 4.588C35.5778 4.98 35.7038 5.50267 35.7038 6.156V9.11C35.7038 9.502 35.7085 9.84733 35.7178 10.146C35.7271 10.4353 35.7505 10.72 35.7878 11H34.3878C34.3598 10.7853 34.3365 10.6033 34.3178 10.454C34.3085 10.3047 34.3038 10.118 34.3038 9.894C34.1265 10.2393 33.8185 10.538 33.3798 10.79C32.9505 11.0327 32.4185 11.154 31.7838 11.154ZM32.2038 9.81C32.5585 9.81 32.8805 9.74933 33.1698 9.628C33.4685 9.50667 33.7065 9.32467 33.8838 9.082C34.0705 8.83933 34.1638 8.54533 34.1638 8.2V7.794H32.1338C31.7418 7.794 31.4245 7.878 31.1818 8.046C30.9485 8.214 30.8318 8.46133 30.8318 8.788C30.8318 9.096 30.9391 9.34333 31.1538 9.53C31.3778 9.71667 31.7278 9.81 32.2038 9.81ZM32.0638 2.88L33.6038 0.64H35.4238L33.3238 2.88H32.0638ZM40.3982 11.154C39.8568 11.154 39.3902 11.0933 38.9982 10.972C38.6062 10.8507 38.2795 10.6873 38.0182 10.482C37.7662 10.2673 37.5702 10.0247 37.4302 9.754C37.2995 9.48333 37.2155 9.19867 37.1782 8.9H38.7182C38.7835 9.16133 38.9422 9.38067 39.1942 9.558C39.4462 9.726 39.8475 9.81 40.3982 9.81C41.0142 9.81 41.4482 9.726 41.7002 9.558C41.9522 9.39 42.0782 9.17067 42.0782 8.9C42.0782 8.74133 42.0175 8.592 41.8962 8.452C41.7842 8.312 41.5882 8.19067 41.3082 8.088C41.0375 7.976 40.6595 7.892 40.1742 7.836C39.7542 7.78 39.3715 7.70067 39.0262 7.598C38.6808 7.486 38.3868 7.34133 38.1442 7.164C37.9015 6.98667 37.7148 6.772 37.5842 6.52C37.4535 6.25867 37.3882 5.95533 37.3882 5.61C37.3882 5.20867 37.4955 4.84467 37.7102 4.518C37.9342 4.19133 38.2702 3.93 38.7182 3.734C39.1662 3.52867 39.7262 3.426 40.3982 3.426C41.0515 3.426 41.5835 3.53333 41.9942 3.748C42.4142 3.95333 42.7315 4.22867 42.9462 4.574C43.1608 4.91 43.2915 5.27867 43.3382 5.68H41.7982C41.7235 5.39067 41.5695 5.16667 41.3362 5.008C41.1122 4.84933 40.7995 4.77 40.3982 4.77C39.8475 4.77 39.4648 4.854 39.2502 5.022C39.0355 5.19 38.9282 5.386 38.9282 5.61C38.9282 5.85267 39.0448 6.06267 39.2782 6.24C39.5208 6.408 39.9968 6.52933 40.7062 6.604C41.1448 6.66 41.5415 6.744 41.8962 6.856C42.2508 6.968 42.5542 7.11733 42.8062 7.304C43.0675 7.48133 43.2682 7.70067 43.4082 7.962C43.5482 8.22333 43.6182 8.536 43.6182 8.9C43.6182 9.32 43.4968 9.70267 43.2542 10.048C43.0208 10.384 42.6662 10.6547 42.1902 10.86C41.7142 11.056 41.1168 11.154 40.3982 11.154ZM39.6282 2.88L38.0882 0.64H39.3482L40.3982 1.76L41.4482 0.64H42.7082L41.1682 2.88H39.6282ZM48.9387 11V1.2H50.6187V5.876L54.7627 1.2H56.7787L53.1107 5.204L57.0587 11H55.0147L51.9907 6.366L50.6187 7.85V11H48.9387ZM58.3931 11V3.58H59.8211V4.84C59.9238 4.57867 60.0638 4.34533 60.2411 4.14C60.4278 3.92533 60.6518 3.75267 60.9131 3.622C61.1838 3.49133 61.4871 3.426 61.8231 3.426C62.0564 3.426 62.2291 3.43533 62.3411 3.454C62.4624 3.47267 62.5464 3.49133 62.5931 3.51V4.91C62.4344 4.86333 62.2898 4.83067 62.1591 4.812C62.0284 4.784 61.8698 4.77 61.6831 4.77C61.2818 4.77 60.9504 4.86333 60.6891 5.05C60.4278 5.22733 60.2364 5.46067 60.1151 5.75C59.9938 6.03 59.9331 6.33333 59.9331 6.66V11H58.3931ZM59.3731 2.88L57.8331 0.64H59.0931L60.1431 1.76L61.1931 0.64H62.4531L60.9131 2.88H59.3731ZM67.0682 11.154C66.4148 11.154 65.8128 11.0187 65.2622 10.748C64.7115 10.468 64.2682 10.048 63.9322 9.488C63.5962 8.928 63.4282 8.21867 63.4282 7.36V7.08C63.4282 6.25867 63.5868 5.57733 63.9042 5.036C64.2308 4.49467 64.6602 4.09333 65.1922 3.832C65.7242 3.56133 66.3028 3.426 66.9282 3.426C68.0575 3.426 68.9208 3.72933 69.5182 4.336C70.1248 4.94267 70.4282 5.81067 70.4282 6.94V7.724H64.9962C65.0148 8.228 65.1222 8.634 65.3182 8.942C65.5142 9.25 65.7662 9.474 66.0742 9.614C66.3822 9.74467 66.7135 9.81 67.0682 9.81C67.6002 9.81 67.9875 9.726 68.2302 9.558C68.4822 9.39 68.6548 9.17067 68.7482 8.9H70.2882C70.1388 9.63733 69.7702 10.1973 69.1822 10.58C68.6035 10.9627 67.8988 11.154 67.0682 11.154ZM66.9982 4.77C66.6528 4.77 66.3308 4.83067 66.0322 4.952C65.7335 5.07333 65.4908 5.26467 65.3042 5.526C65.1175 5.78733 65.0148 6.13733 64.9962 6.576H68.8882C68.8788 6.10933 68.7902 5.74533 68.6222 5.484C68.4542 5.22267 68.2302 5.04067 67.9502 4.938C67.6702 4.826 67.3528 4.77 66.9982 4.77ZM71.9693 11V3.58H73.3973V4.826C73.5746 4.45267 73.8639 4.126 74.2653 3.846C74.6666 3.566 75.1846 3.426 75.8193 3.426C76.7246 3.426 77.4059 3.67333 77.8633 4.168C78.3206 4.65333 78.5493 5.36733 78.5493 6.31V11H77.0093V6.66C77.0093 6.03467 76.8786 5.56333 76.6173 5.246C76.3559 4.92867 75.9266 4.77 75.3293 4.77C74.8999 4.77 74.5499 4.86333 74.2793 5.05C74.0179 5.22733 73.8219 5.46067 73.6913 5.75C73.5699 6.03 73.5093 6.33333 73.5093 6.66V11H71.9693ZM83.6658 11.154C83.0125 11.154 82.4105 11.0187 81.8598 10.748C81.3092 10.468 80.8658 10.048 80.5298 9.488C80.1938 8.928 80.0258 8.21867 80.0258 7.36V7.08C80.0258 6.25867 80.1845 5.57733 80.5018 5.036C80.8285 4.49467 81.2578 4.09333 81.7898 3.832C82.3218 3.56133 82.9005 3.426 83.5258 3.426C84.6552 3.426 85.5185 3.72933 86.1158 4.336C86.7225 4.94267 87.0258 5.81067 87.0258 6.94V7.724H81.5938C81.6125 8.228 81.7198 8.634 81.9158 8.942C82.1118 9.25 82.3638 9.474 82.6718 9.614C82.9798 9.74467 83.3112 9.81 83.6658 9.81C84.1978 9.81 84.5852 9.726 84.8278 9.558C85.0798 9.39 85.2525 9.17067 85.3458 8.9H86.8858C86.7365 9.63733 86.3678 10.1973 85.7798 10.58C85.2012 10.9627 84.4965 11.154 83.6658 11.154ZM83.5958 4.77C83.2505 4.77 82.9285 4.83067 82.6298 4.952C82.3312 5.07333 82.0885 5.26467 81.9018 5.526C81.7152 5.78733 81.6125 6.13733 81.5938 6.576H85.4858C85.4765 6.10933 85.3878 5.74533 85.2198 5.484C85.0518 5.22267 84.8278 5.04067 84.5478 4.938C84.2678 4.826 83.9505 4.77 83.5958 4.77ZM88.5669 11V1.2H90.1069V6.814L93.1869 3.58H95.0069L92.0109 6.73L95.2869 11H93.4389L90.9889 7.71L90.1069 8.606V11H88.5669Z" fill="#9CA3AF"/>
</svg>
